<svg width="42" height="42" viewBox="0 0 42 42" fill="none" xmlns="http://www.w3.org/2000/svg">
<path fill-rule="evenodd" clip-rule="evenodd" d="M21 3.29175C11.2354 3.29175 3.29166 11.2355 3.29166 21.0001C3.29166 30.7647 11.2354 38.7084 21 38.7084C30.7646 38.7084 38.7083 30.7647 38.7083 21.0001C38.7083 11.2355 30.7646 3.29175 21 3.29175ZM21 41.8334C9.51249 41.8334 0.166656 32.4876 0.166656 21.0001C0.166656 9.51258 9.51249 0.166748 21 0.166748C32.4875 0.166748 41.8333 9.51258 41.8333 21.0001C41.8333 32.4876 32.4875 41.8334 21 41.8334Z" fill="#888888"/>
<path fill-rule="evenodd" clip-rule="evenodd" d="M17.9971 29.7933C17.5971 29.7933 17.195 29.6412 16.8908 29.3329C16.2825 28.7204 16.2846 27.7329 16.895 27.1245L23.045 20.9995L16.895 14.8766C16.2846 14.2683 16.2825 13.2787 16.8908 12.6662C17.4992 12.0516 18.4867 12.0558 19.0992 12.662L26.3617 19.8933C26.6554 20.187 26.82 20.5849 26.82 20.9995C26.82 21.4162 26.6554 21.8141 26.3617 22.1079L19.0992 29.337C18.795 29.6412 18.395 29.7933 17.9971 29.7933Z" fill="#888888"/>
</svg>
