<svg width="42" height="42" viewBox="0 0 42 42" fill="none" xmlns="http://www.w3.org/2000/svg">
<path fill-rule="evenodd" clip-rule="evenodd" d="M21 3.29175C11.2354 3.29175 3.29169 11.2355 3.29169 21.0001C3.29169 30.7647 11.2354 38.7084 21 38.7084C30.7646 38.7084 38.7084 30.7647 38.7084 21.0001C38.7084 11.2355 30.7646 3.29175 21 3.29175ZM21 41.8334C9.51252 41.8334 0.166687 32.4876 0.166687 21.0001C0.166687 9.51258 9.51252 0.166748 21 0.166748C32.4875 0.166748 41.8334 9.51258 41.8334 21.0001C41.8334 32.4876 32.4875 41.8334 21 41.8334Z" fill="#888888"/>
<path fill-rule="evenodd" clip-rule="evenodd" d="M24.005 29.7933C23.6071 29.7933 23.2071 29.6412 22.9029 29.337L15.6383 22.1079C15.3446 21.8141 15.18 21.4162 15.18 20.9995C15.18 20.5849 15.3446 20.187 15.6383 19.8933L22.9029 12.662C23.5133 12.0537 24.5008 12.0537 25.1112 12.6662C25.7217 13.2787 25.7175 14.2683 25.1071 14.8766L18.9571 20.9995L25.1071 27.1245C25.7175 27.7329 25.7217 28.7204 25.1112 29.3329C24.8071 29.6412 24.405 29.7933 24.005 29.7933Z" fill="#888888"/>
</svg>
