<svg width="34" height="34" viewBox="0 0 34 34" fill="none" xmlns="http://www.w3.org/2000/svg">
<path fill-rule="evenodd" clip-rule="evenodd" d="M0.333313 17.025C0.333313 8.24518 7.34998 0.333313 17.0333 0.333313C26.5 0.333313 33.6666 8.09496 33.6666 16.9749C33.6666 27.2737 25.2666 33.6666 17 33.6666C14.2666 33.6666 11.2333 32.9322 8.79998 31.4967C7.94998 30.9793 7.23331 30.5954 6.31665 30.8958L2.94998 31.8973C2.09998 32.1644 1.33331 31.4967 1.58331 30.5954L2.69998 26.8564C2.88331 26.339 2.84998 25.7882 2.58331 25.3542C1.14998 22.7169 0.333313 19.8292 0.333313 17.025ZM14.8333 17.025C14.8333 18.2101 15.7833 19.1616 16.9666 19.1782C18.15 19.1782 19.1 18.2101 19.1 17.0417C19.1 15.8566 18.15 14.9052 16.9666 14.9052C15.8 14.8885 14.8333 15.8566 14.8333 17.025ZM22.5166 17.0417C22.5166 18.2101 23.4666 19.1782 24.65 19.1782C25.8333 19.1782 26.7833 18.2101 26.7833 17.0417C26.7833 15.8566 25.8333 14.9052 24.65 14.9052C23.4666 14.9052 22.5166 15.8566 22.5166 17.0417ZM9.28331 19.1782C8.11665 19.1782 7.14998 18.2101 7.14998 17.0417C7.14998 15.8566 8.09998 14.9052 9.28331 14.9052C10.4666 14.9052 11.4166 15.8566 11.4166 17.0417C11.4166 18.2101 10.4666 19.1616 9.28331 19.1782Z" fill="white"/>
</svg>
